<svg
  xmlns="http://www.w3.org/2000/svg"
  xml:space="preserve"
  width="111.626"
  height="104.962"
  style="shape-rendering:geometricPrecision;text-rendering:geometricPrecision;image-rendering:optimizeQuality;fill-rule:evenodd;clip-rule:evenodd"
  viewBox="0 0 110 103">
  <defs>
  <symbol
    id="logo-1"
    >
    <path d="M17.26 8.38s-.06-.36-.3-.23c-.24.13-.15.67-.07.86.07.18.15.36.15.36s.07-.22.14-.37.09-.21.09-.21-.01.46.17.8c.17.34.32.62.32.62s.11-.42 0-1.12c-.11-.71-.31-1.14-.31-1.14s-.13.11-.17.44zM.33 1.08h13.98L16.92.05c.12-.05.28-.06.43-.05.14.01.29.04.42.09l2.51.99h14.16v14.08c0 4.74-1.94 9.04-5.06 12.17-3.12 3.12-7.43 5.06-12.17 5.06s-9.04-1.94-12.17-5.06C1.92 24.21-.02 19.9-.02 15.16V1.08h.34zm12.28.67H.67v13.41c0 4.55 1.86 8.69 4.86 11.69s7.14 4.86 11.69 4.86 8.69-1.86 11.69-4.86 4.86-7.14 4.86-11.69V1.75H21.99l1.24.49c.13.05.23.12.3.19.07.08.12.17.13.27a.45.45 0 0 1-.1.37c-.06.07-.13.12-.22.16l-1.99.79c.88 1.05 1.28 2.3 1.28 3.7 0 1.56-.47 2.95-1.55 4.08-1.02 1.07-2.28 1.63-3.76 1.63-1.47 0-2.73-.52-3.75-1.59-1.08-1.13-1.52-2.55-1.52-4.1 0-1.41.4-2.66 1.27-3.7l-1.94-.77a.861.861 0 0 1-.3-.19.489.489 0 0 1-.13-.27.46.46 0 0 1 .1-.37c.06-.07.13-.12.22-.16l1.34-.53zM6.13 5.16V9.2h2.26c.32 0 .9-.02 1.16-.25.32-.29.41-.81.43-1.21v-.08h.45v3.88h-.44l-.01-.07c-.03-.25-.1-.75-.21-.97a.86.86 0 0 0-.43-.39c-.26-.13-.66-.15-.95-.15H6.13v3.43c0 .17 0 .68.06.83.04.09.1.16.19.2.12.07.41.08.55.08h1.8c.39 0 .91-.01 1.28-.12.29-.09.54-.27.75-.47.4-.39.72-.95.98-1.45l.02-.04h.49l-.98 2.83H2.92v-.46h.46c.24 0 .46-.06.68-.17.14-.07.25-.18.3-.33.09-.24.09-.74.09-1V6.37c0-.25-.01-.99-.18-1.19-.21-.24-.58-.29-.88-.29h-.46v-.46h8.37l.12 2.51h-.46l-.01-.07c-.06-.33-.17-.85-.35-1.14-.13-.21-.33-.35-.55-.45-.28-.11-.77-.11-1.08-.11H6.14zm21.25 5.78-1.67-4-1.71 4h3.38zm.31.74h-4.01l-.69 1.62c-.1.24-.26.63-.26.89 0 .15.08.27.2.36.19.15.71.2.95.22l.08.01v.45h-3.52v-.44l.07-.01c.22-.04.65-.13.82-.28.35-.33.68-1.06.87-1.5l3.77-8.82h.38l3.72 8.91c.16.39.46 1.07.79 1.36.27.23.62.31.97.34h.08v.45h-4.36v-.45h.08c.22-.01.63-.05.81-.19.12-.1.19-.22.19-.38 0-.3-.19-.78-.31-1.06l-.61-1.46zM17.28 2.85c-.89 0-1.62.32-2.19.99l2.03.8c.05.02.11.03.17.04h.07l2.18-.86c-.58-.69-1.36-.98-2.26-.98zm.15-.73c1.27 0 2.35.44 3.28 1.25l1.56-.62-4.8-1.89a.802.802 0 0 0-.18-.04h-.07l-4.9 1.93 1.62.64c.99-.86 2.16-1.27 3.48-1.27zm2.58 2.41-2.34.92c-.07.03-.15.04-.23.05v1.67c.11.06.19.18.19.32 0 .2-.17.37-.37.37-.2 0-.37-.17-.37-.37 0-.14.08-.26.19-.32V5.48c-.09-.02-.17-.04-.25-.07l-2.19-.87c-.49.95-.62 2.1-.62 3.14 0 1.36.22 2.87 1.09 3.96.56.7 1.29 1.04 2.19 1.04.98 0 1.78-.39 2.41-1.14.8-.95.96-2.44.96-3.64 0-1.09-.13-2.36-.64-3.38z" style="fill:#00b0b1;fill-rule:nonzero"/>
    <path d="M7.96 24.63h-.01.01zm.09-.05h-.01.01zm.07-.04h-.01.01zm.11-.06h-.01.01zm6.45-7c-.01 0 0 0 0 0 .01 0 0 0 0 0zm-.01.01c-.01 0 0 0 0 0 .01 0 0 0 0 0zm-.04.04c-.01 0 0 0 0 0 .01 0 0 0 0 0zm.02-.02c-.01 0 0 0 0 0 .01 0 0 0 0 0zm-.03.03c-.01 0 0 0 0 0 .01 0 0 0 0 0zm.02-.02c-.01 0 0 0 0 0 .01 0 0 0 0 0zm.01-.01c-.01 0 0 0 0 0 .01 0 0 0 0 0zm-.02.02c-.01 0 0 0 0 0 .01 0 0 0 0 0zm-.02.02c-.01 0 0 0 0 0 .01 0 0 0 0 0zm.07-.07c-.01 0 0 0 0 0 .01 0 0 0 0 0zm-.07.07c-.01 0 0 0 0 0 .01 0 0 0 0 0zm2.9 1.06h-.01v.01l.01-.01zm6.61.31h.01v-.01h-.02l.01.01zm-.07 2.3h.01v-.01c-.01 0 0-.01-.01 0v.01zm-9.45-3.67h.01c0-.01 0 0 0 0 0-.01 0 0 0 0 0-.01 0 0 0 0 0-.01 0 0 0 0 0-.01 0 0 0 0 0-.01 0 0 0 0 0-.01 0 0 0 0 0-.01 0 0 0 0 0-.01 0 0 0 0 0-.01 0 0 0 0 0-.01 0 0 0 0v-.01l-.08.09zm0 0 .08-.09c.05-.03.09-.18.1-.24.01-.08-.02-.2-.08-.26-.09-.08-.14-.09-.26-.08-.04 0-.09.02-.13.04-.05.02-.06.04-.1.07-.07.07-.12.15-.13.25v.04c-.01.05 0 .03 0 .07 0 .13.13.26.24.27.08 0 .21-.01.26-.08zm-1.72 2.04c.01 0 .04-.04.05-.05.01-.01.01-.01.02-.01l.13-.13c.05-.04.06-.06.1-.09.01-.01.03-.02.04-.04.02-.02.02-.02.04-.03l.08-.06c.04-.02.11-.06.15-.06h.07c.03.05.05.03.02.15-.01.06-.02.1-.04.15-.03.1-.06.2-.09.29-.12.41-.23.78-.34 1.2-.05.2-.11.42-.14.63-.03.2-.09.47.1.6.17.12.43.01.58-.09.22-.13.35-.26.54-.42.03-.02.08-.07.1-.09l.2-.18c0-.01-.02-.03-.03-.03l-.03-.03-.06-.06c-.04-.04-.03-.04-.07 0-.02.02-.05.04-.07.06-.05.06-.2.19-.27.24-.06.05-.24.2-.32.18-.12-.03-.05-.31-.03-.4.09-.45.29-1.15.43-1.6.08-.26.16-.54.22-.8.02-.07.02-.13-.02-.2-.12-.17-.44-.08-.59-.02-.3.12-.65.4-.87.65-.02.02-.09.08-.09.1 0 .02.01.02.04.05l.11.08c.01.01.01.01.02.01zm11.17 1.63v-.01h.01l-.02-.02c-.01-.01 0-.01-.02-.03-.01-.01-.02-.01-.02-.02-.01-.01 0-.01-.02-.03-.02-.02-.01-.01-.04-.05-.01-.01-.03-.04-.04-.05l-.17.13c-.17.13-.36.25-.54.35-.23.13-.54.23-.5-.15.02-.17.05-.34.09-.5l.06-.24c.08-.31.17-.63.25-.94l.06-.24.06-.24h.85l.01-.05v-.02c0-.02 0-.01.01-.03v-.02l.02-.09v-.03c0-.02.01-.01.01-.04 0-.01 0 0-.01-.01h.02c-.01-.01-.08-.01-.1-.01h-.74c.01-.01.03-.12.04-.14l.04-.14c.01-.05.03-.09.04-.14 0-.01.01-.03.01-.04l.16-.61c0-.01.02-.06.02-.07-.04.01-.49.18-.55.21-.12.05-.1.01-.13.13l-.21.81h-.67c0 .03-.02.09-.03.13l-.02.07c0 .01 0 0-.01.02 0 .02 0 .02-.01.04 0 .02-.01.01-.01.04h.66l-.33 1.3c-.06.21-.12.44-.16.66-.05.24-.1.48-.06.73.08.57.76.21 1.04.02.08-.05.16-.11.24-.16.08-.06.16-.11.24-.17.08-.06.16-.12.24-.17.07-.05.17-.12.23-.18zm-10.6-4.9c-.69.06-1.31.51-1.58 1.15-.07.16-.12.34-.17.51l-.15.54c-.09.36-.18.73-.27 1.1-.13.56-.28 1.1-.39 1.66-.03.17-.08.43-.07.6.02.22.14.33.36.31.4-.04.99-.53 1.26-.8l.08-.08c.07-.07.06-.06.03-.09-.05-.05-.04-.04-.08-.09-.04-.04-.03-.04-.09.02-.11.11-.24.22-.37.31-.1.07-.32.23-.43.27-.1.03-.18-.01-.17-.12 0-.08.04-.21.06-.29.16-.74.35-1.48.52-2.22.09-.37.17-.74.26-1.1.04-.18.09-.36.14-.54.04-.16.1-.36.2-.49.06-.08.12-.11.22-.12.34-.04.67.11.94.05.18-.04.31-.22.21-.4-.09-.19-.34-.18-.52-.16zm5.83 3.36c.02-.13.05-.25.08-.38l.25-1.12c.05-.24.11-.5.17-.74.05-.19.13-.5.33-.59.17-.08.61.03.82.04.14.01.26 0 .37-.09.1-.08.12-.22.06-.33-.13-.23-.5-.17-.71-.12-.22.05-.45.16-.64.28-.64.42-.84 1.03-1 1.74-.06.25-.11.5-.17.75-.17.74-.33 1.5-.52 2.23l-.09.36c-.03.12-.07.24-.09.37h.61c.03-.19.08-.37.12-.56.04-.19.08-.37.13-.56.08-.34.14-.72.36-1.01.18-.24.45-.5.72-.65.07-.04.16-.09.23-.1.09-.02.22-.04.24.08.02.09-.08.45-.12.56-.1.35-.21.7-.31 1.06-.08.29-.24.86-.1 1.14.19.37.69.03.9-.13.17-.13.3-.25.45-.4l.09-.09c.03-.04.03-.06 0-.1a.874.874 0 0 0-.08-.1c-.02 0-.05.04-.07.05l-.21.17c-.09.08-.18.16-.28.23-.13.09-.27.16-.26-.07.01-.15.03-.3.07-.44.14-.52.31-1.04.46-1.56.06-.21.2-.65.05-.83a.346.346 0 0 0-.15-.11.595.595 0 0 0-.23-.01c-.28.05-.74.39-.96.56-.09.07-.18.15-.27.23-.09.08-.17.17-.26.25zm0 0c0 .01 0 0-.01.01 0-.01 0 0 .01-.01zm-1.77-1.08-.01.01v-.01c-.01.01-.03.08-.04.1 0 .01 0 0-.01.02-.28 0-.54-.01-.81.05-.24.06-.39.14-.6.27-.09.06-.17.12-.24.19-.04.03-.07.07-.11.1l-.11.11c-.13.12-.28.35-.38.49-.23.34-.44.83-.5 1.24-.03.23-.07.54.08.73.07.09.16.15.28.16.16 0 .24-.06.35-.09-.16.11-.36.21-.53.3-.18.09-.36.2-.52.32-.35.25-.58.73-.34 1.13.1.16.27.31.45.39.25.11.45.12.72.12.44 0 .9-.15 1.23-.45.35-.31.5-.66.55-1.12.04-.33.03-.49.04-.79.03-.57.3-1.51.44-2.06.12-.44.25-.86.38-1.3-.03 0-.04 0-.06.01l-.04.01h-.02c-.02 0 0 0-.02.01h-.02l-.16.03c-.01 0 0 0-.01.01zm-.47.6-.11.42c-.04.14-.08.28-.11.42-.07.27-.14.55-.25.81-.1.25-.23.45-.45.61-.11.08-.21.14-.34.19a.45.45 0 0 1-.23.01.35.35 0 0 1-.15-.12c-.11-.13-.11-.27-.1-.43.01-.24.11-.63.2-.86.14-.37.28-.73.65-.94.21-.12.43-.14.66-.13.08 0 .16.02.24.03zm-.56 2.26c0-.01 0 0 .01-.01 0 .01 0 0-.01.01zm0 0c0 .18-.03.36-.04.54v.14c0 .04-.01.09-.01.13 0 .09-.01.18-.02.27-.04.33-.09.59-.29.86-.21.3-.5.51-.87.56-.07.01-.21.01-.28 0-.43-.06-.78-.52-.45-1.01.13-.19.43-.4.62-.53.22-.16.45-.31.67-.47l.33-.24c.05-.04.11-.08.16-.12.05-.04.1-.09.16-.13zm-1.02.5c0-.01.01 0 0 0 0 0 0 .01 0 0zm-.01.01c0-.01 0 0 .01-.01 0 .01 0 0-.01.01zm0 0c0 .01 0 0-.01.01h-.01c0-.01 0 0 .01-.01h.01zm-.01.01c0 .01 0 0-.01.01h-.01c0-.01 0 0 .01-.01h.01zm12.55-6.05c-.02.08-.06.26-.09.36-.05.21-.12.43-.18.63-.07.22-.14.44-.2.66-.14.43-.28.87-.43 1.3-.29.84-.6 1.68-.95 2.5-.17.4-.34.8-.54 1.19-.1.19-.19.38-.29.57-.28.51-.66 1.14-1.11 1.51-.32.26-.67.51-1.01.72l-.01.01-.08.04-.01.01-.02.01c-.01 0-.02.01-.03.02-.01.01-.01.01-.02.01s-.01.01-.02.01l-.02.01c-.05.02-.11.05-.16.08l-.13.06-.08.03c.12 0 .26-.01.36-.01h.11l-.05.09c-.02.04-.05.05-.08.07l-.21.16c-.02.01-.04.03-.07.05l-.35.25c-.05.03-.1.06-.14.09l-.15.09-.15.09-.02.01s-.01 0-.01.01l-.02.01s-.01 0-.01.01l-.02.01c-.01 0-.01.01-.02.01 0 0-.01 0-.01.01-.01 0-.01.01-.02.01l-.02.01c-.01 0-.02.01-.03.02-.01.01-.01.01-.02.01s-.01.01-.02.01l-.01.01c-.48.25-.97.46-1.49.61-1.24.36-2.47.39-3.73.15-.56-.11-1.1-.27-1.63-.46-.51-.18-1.01-.38-1.51-.58-.49-.2-.98-.41-1.48-.6-.54-.21-1.06-.38-1.64-.42-.32-.02-.63-.01-.95.04-.27.05-.51.14-.75.26l-.01.01c-.01 0-.01.01-.02.01 0 0-.01 0-.01.01l-.01.01c-.07.03-.14.09-.21.13-.07.04-.13.1-.19.15-.02.01-.03.03-.04.04l-.13.12-.09.09c-.03.03-.05.07-.08.1-.05.04-.1.14-.15.19-.05.06-.09.14-.14.21-.14.21-.27.55-.37.78v-.37c0-.14.02-.3.06-.43a3.825 3.825 0 0 1 .44-1.01c.53-.81 1.28-1.33 2.17-1.67.25-.09.5-.17.76-.2.3-.04.6-.05.91-.05 1.48.04 3.06.62 4.29 1.43.28.18.54.37.79.57l-.19-.28a.138.138 0 0 1-.03-.04l-.16-.22c-.02-.02-.03-.04-.04-.06-.03-.02-.09-.11-.11-.14l-.06-.13.14.04.53.15c.18.05.36.09.55.13.39.08.8.13 1.2.14.79.02 1.48-.13 2.2-.46 1.14-.52 2.17-1.43 3.02-2.35 1.33-1.46 2.35-3.04 3.37-4.72.33-.54.64-1.1.99-1.63.05-.08.2-.29.23-.31zm-.59 1.32c-.03.05-.06.1-.09.16-.34.57-.68 1.14-1.03 1.69-.71 1.11-1.44 2.16-2.29 3.17-.55.65-1.17 1.28-1.83 1.81-.17.14-.34.27-.52.39-.18.13-.37.24-.55.36l-.02.01s-.01 0-.01.01l-.01.01-.02.01s-.01 0-.01.01l-.02.01c-.01 0-.01.01-.02.01 0 0-.01 0-.01.01l-.02.01c-.01.01-.03.01-.04.02l-.01.01c-.01.01-.02.01-.03.01l-.01.01c-.08.04-.16.08-.23.12-.08.04-.16.07-.25.11-.53.23-1.15.38-1.73.41-.12.01-.24 0-.36 0-.32 0-.65-.04-.97-.09-.33-.05-.65-.13-.97-.21.11.15.22.31.32.47.04.05.07.11.1.16.04.05.06.11.1.16.03.04.18.33.19.38l.03.17-.13-.11c-.12-.1-.24-.21-.36-.32-.12-.1-.25-.2-.37-.3-.25-.2-.52-.38-.79-.56-.56-.36-1.17-.66-1.8-.89-.73-.26-1.46-.41-2.23-.45-.39-.02-.84 0-1.22.1-.33.08-.65.22-.96.37l-.01.01h-.01l-.08.04-.02.01c-.01 0-.01.01-.02.01 0 0-.01 0-.01.01-.01 0-.01.01-.02.01l-.02.01h-.01c-.01 0-.01.01-.02.01-.01.01-.02.01-.03.02l-.02.01h-.01c-.04.02-.1.06-.14.08-.14.1-.27.18-.4.3-.02.02-.05.04-.07.06-.02.02-.04.04-.06.05-.04.03-.08.08-.11.11-.22.22-.45.51-.6.79l-.11.22c.1-.12.2-.24.33-.35.24-.22.51-.4.81-.52.71-.29 1.55-.29 2.3-.11.34.08.67.2.99.32 1.58.61 3.14 1.39 4.83 1.68.79.14 1.6.15 2.39.04 1.17-.16 2.26-.63 3.24-1.29.06-.04.16-.11.24-.17h-.16c-.02 0-.03 0-.05-.01-.04 0-.1.01-.14 0-.01 0-.02 0-.02-.01-.04 0-.08.01-.12-.01h-.05c-.02 0-.03 0-.05-.01h-.02c-.02 0-.04 0-.06-.01-.02 0-.05 0-.07-.01-.03 0-.05 0-.08-.01-.03 0-.04.01-.07-.01-.02-.01-.04.01-.08-.01l-.03-.02v-.09l.05-.01c.13-.03.27-.05.4-.07.36-.05.69-.19 1.01-.36.37-.2.76-.5 1.09-.76 1.18-.96 2.51-4.77 3.01-6.27.08-.23.15-.47.23-.7.03-.08.05-.17.08-.25z" style="fill:#fefefe;fill-rule:nonzero"/>
  </symbol>
  </defs>
</svg>
